<svg width="32" height="32" viewBox="0 0 32 32" fill="none" xmlns="http://www.w3.org/2000/svg">
<path d="M16.0091 29.3333C19.5446 29.3285 22.9336 27.9216 25.4318 25.4216C27.9301 22.9217 29.3333 19.5331 29.3333 16H2.66663C2.66663 19.5362 4.07235 22.9276 6.57455 25.4281C9.07675 27.9286 12.4705 29.3333 16.0091 29.3333Z" fill="#EEEEEE"/>
<path d="M16.0091 2.66666C14.2567 2.66586 12.5214 3.01019 10.9022 3.67996C9.28306 4.34974 7.81189 5.33184 6.57276 6.57012C5.33364 7.80839 4.35087 9.27858 3.68063 10.8966C3.01039 12.5146 2.66583 14.2488 2.66663 16H29.3333C29.3333 12.4669 27.9301 9.07834 25.4318 6.57838C22.9336 4.07842 19.5446 2.67151 16.0091 2.66666Z" fill="#C80000"/>
</svg>
